<?xml version="1.0" standalone="no"?>
<!DOCTYPE svg PUBLIC "-//W3C//DTD SVG 20010904//EN"
 "http://www.w3.org/TR/2001/REC-SVG-20010904/DTD/svg10.dtd">
<svg version="1.0" xmlns="http://www.w3.org/2000/svg"
 width="1280.000000pt" height="870.000000pt" viewBox="0 0 1280.000000 870.000000"
 preserveAspectRatio="xMidYMid meet">
<metadata>
Created by potrace 1.15, written by Peter Selinger 2001-2017
</metadata>
<g transform="translate(0.000000,870.000000) scale(0.100000,-0.100000)"
fill="#000000" stroke="none">
<path d="M10930 4412 l-53 -210 -76 -12 c-42 -6 -102 -18 -135 -26 -32 -8 -59
-14 -61 -12 -1 2 -55 77 -120 168 -64 91 -121 169 -125 173 -11 12 -281 -119
-275 -135 10 -28 114 -402 112 -404 -71 -55 -131 -105 -164 -137 l-42 -40
-191 87 c-105 47 -194 86 -199 86 -5 0 -46 -55 -91 -121 l-83 -122 153 -151
152 -151 -17 -45 c-10 -25 -29 -81 -43 -125 -14 -44 -27 -82 -29 -84 -2 -3
-99 -14 -216 -25 l-212 -21 -7 -80 c-4 -44 -9 -112 -13 -151 l-6 -71 210 -53
210 -53 7 -46 c6 -43 25 -146 38 -201 5 -23 -9 -35 -170 -149 -96 -68 -174
-127 -172 -131 35 -86 125 -260 135 -260 8 0 102 25 211 56 l197 55 25 -32
c14 -18 54 -66 89 -107 l63 -73 -86 -188 c-47 -104 -86 -192 -86 -197 0 -5 55
-47 123 -93 l122 -83 151 157 c145 151 152 157 175 144 13 -7 71 -29 129 -49
l105 -36 20 -205 c11 -112 23 -209 27 -215 5 -7 60 -14 135 -18 71 -4 135 -9
144 -12 13 -3 25 34 69 206 47 183 56 211 74 214 12 2 62 11 111 20 50 9 101
18 115 22 24 5 35 -8 145 -162 66 -92 123 -171 126 -176 3 -5 66 21 140 57
101 50 133 70 131 83 -2 9 -28 103 -58 207 l-53 190 32 25 c17 14 64 53 104
88 40 34 75 62 78 62 3 0 91 -39 196 -86 105 -48 194 -82 198 -78 4 5 43 60
86 123 l78 113 -153 153 -153 153 36 99 c20 54 40 112 45 128 l9 30 211 21
c117 12 214 23 216 25 5 6 27 291 23 295 -2 3 -96 28 -210 57 l-205 52 -12 77
c-6 43 -18 104 -26 135 -8 31 -11 59 -7 63 4 4 80 58 168 120 88 62 164 116
168 120 13 11 -119 281 -135 275 -7 -3 -94 -28 -193 -55 -99 -28 -187 -53
-196 -55 -11 -4 -25 7 -41 32 -14 21 -54 69 -88 106 l-62 68 86 189 c47 105
86 194 86 199 0 5 -55 46 -121 91 l-121 82 -153 -152 -153 -153 -44 18 c-23
10 -81 30 -128 45 l-85 27 -20 214 -20 214 -85 7 c-47 3 -115 9 -151 13 l-66
6 -53 -209z m285 -557 c232 -48 462 -191 611 -378 75 -94 163 -265 193 -377
102 -378 -4 -770 -283 -1043 -412 -403 -1081 -400 -1486 5 -210 210 -312 454
-314 748 -2 270 81 494 259 704 155 182 413 321 660 355 93 13 261 6 360 -14z"/>
</g>
</svg>
